<svg xmlns="http://www.w3.org/2000/svg" id="diagram_diagram_svg" width="1100" height="500"><g id="diagram_pageBackground" x="0" y="0" width="1100" height="500" transform="translate(0, 0)"/><g id="diagram_backgroundImageLayer" class="e-background-image-layer" x="0" y="0" width="1100" height="500" transform="translate(0, 0)"/><rect id="diagram_backgroundLayerrect" x="0" y="0" width="1100" height="500" visibility="visible" transform="translate(0, 0)" rx="0" ry="0" opacity="1" pointer-events="none" stroke-width="1" stroke-dasharray="0" fill="transparent"/><g id="diagram_diagramLayer" transform="translate(0, 0)"><g id="sourceNode1_groupElement"><rect id="sourceNode1" x="70" y="75" width="100" height="50" visibility="visible" transform="rotate(0,120,100)" rx="0" ry="0" opacity="1" role="img" aria-label="sourceNode1" stroke="transparent" stroke-width="0" stroke-dasharray="none" fill="transparent"/><g id="sourceNode1_content_groupElement" transform="translate(0,0)"><rect id="sourceNode1_content" x="70" y="75" width="100" height="50" visibility="visible" transform="rotate(0,120,100)" rx="0" ry="0" opacity="1" role="img" aria-label="Source Document" stroke="#868686" stroke-width="1" stroke-dasharray="none" fill="#d5f5d5"/></g><g id="sourceNode1_e4AS9_groupElement" transform="translate(0,0)"><rect id="sourceNode1_e4AS9" x="71.9765625" y="92.8" width="96.046875" height="14.399999999999999" visibility="visible" transform="rotate(0,120,100)" rx="0" ry="0" opacity="1" pointer-events="none" stroke="transparent" stroke-width="0" stroke-dasharray="none" fill="transparent"/><text stroke="transparent" stroke-width="0" stroke-dasharray="none" fill="black" style="font-style: normal; font-weight: normal; font-size: 12px; font-family: Arial;" id="sourceNode1_e4AS9_text" visibility="visible" text-decoration="None" transform="rotate(0,120,100)translate(71.9765625,92.8)" opacity="1" role="img" aria-label="sourceNode1_e4AS9"><tspan x="0" y="10.8">Source Document</tspan></text></g></g><g id="censusNode2_groupElement"><rect id="censusNode2" x="70" y="162.5" width="100" height="75" visibility="visible" transform="rotate(0,120,200)" rx="0" ry="0" opacity="1" role="img" aria-label="censusNode2" stroke="transparent" stroke-width="0" stroke-dasharray="none" fill="transparent"/><g id="censusNode2_content_groupElement" transform="translate(0,0)"><path d="M100,37.5 L50,75 L0,37.5 L50,0 L100,37.5 Z " id="censusNode2_content" transform="rotate(0,120,200)translate(70,162.5)" visibility="visible" opacity="1" role="img" aria-label="Census Record" stroke="#8f908f" stroke-width="1" stroke-dasharray="none" fill="#e2f3fa"/></g><g id="censusNode2_m0gK7_groupElement" transform="translate(0,0)"><rect id="censusNode2_m0gK7" x="78.640625" y="192.8" width="82.71875" height="14.399999999999999" visibility="visible" transform="rotate(0,120,200)" rx="0" ry="0" opacity="1" pointer-events="none" stroke="transparent" stroke-width="0" stroke-dasharray="none" fill="transparent"/><text stroke="transparent" stroke-width="0" stroke-dasharray="none" fill="black" style="font-style: normal; font-weight: normal; font-size: 12px; font-family: Arial;" id="censusNode2_m0gK7_text" visibility="visible" text-decoration="None" transform="rotate(0,120,200)translate(78.640625,192.8)" opacity="1" role="img" aria-label="censusNode2_m0gK7"><tspan x="0" y="10.8">Census Record</tspan></text></g></g><g id="booksNode3_groupElement"><rect id="booksNode3" x="70" y="287.5" width="100" height="75" visibility="visible" transform="rotate(0,120,325)" rx="0" ry="0" opacity="1" role="img" aria-label="booksNode3" stroke="transparent" stroke-width="0" stroke-dasharray="none" fill="transparent"/><g id="booksNode3_content_groupElement" transform="translate(0,0)"><path d="M100,37.5 L50,75 L0,37.5 L50,0 L100,37.5 Z " id="booksNode3_content" transform="rotate(0,120,325)translate(70,287.5)" visibility="visible" opacity="1" role="img" aria-label="Books and Magazine" stroke="#8f908f" stroke-width="1" stroke-dasharray="none" fill="#e2f3fa"/></g><g id="booksNode3_Zs1aA_groupElement" transform="translate(0,0)"><rect id="booksNode3_Zs1aA" x="91.640625" y="310.6" width="56.71875" height="28.799999999999997" visibility="visible" transform="rotate(0,120,325)" rx="0" ry="0" opacity="1" pointer-events="none" stroke="transparent" stroke-width="0" stroke-dasharray="none" fill="transparent"/><text stroke="transparent" stroke-width="0" stroke-dasharray="none" fill="black" style="font-style: normal; font-weight: normal; font-size: 12px; font-family: Arial;" id="booksNode3_Zs1aA_text" visibility="visible" text-decoration="None" transform="rotate(0,120,325)translate(91.640625,310.6)" opacity="1" role="img" aria-label="booksNode3_Zs1aA"><tspan x="0" y="10.8">Books and</tspan><tspan x="2.34375" y="25.2">Magazine</tspan></text></g></g><g id="recordNode4_groupElement"><rect id="recordNode4" x="257.5" y="175" width="125" height="50" visibility="visible" transform="rotate(0,320,200)" rx="0" ry="0" opacity="1" role="img" aria-label="recordNode4" stroke="transparent" stroke-width="0" stroke-dasharray="none" fill="transparent"/><g id="recordNode4_content_groupElement" transform="translate(0,0)"><rect id="recordNode4_content" x="257.5" y="175" width="125" height="50" visibility="visible" transform="rotate(0,320,200)" rx="0" ry="0" opacity="1" role="img" aria-label="Record Template" stroke="#868686" stroke-width="1" stroke-dasharray="none" fill="#d5f5d5"/></g><g id="recordNode4_v7N6e_groupElement" transform="translate(0,0)"><rect id="recordNode4_v7N6e" x="273.9765625" y="192.8" width="92.046875" height="14.399999999999999" visibility="visible" transform="rotate(0,320,200)" rx="0" ry="0" opacity="1" pointer-events="none" stroke="transparent" stroke-width="0" stroke-dasharray="none" fill="transparent"/><text stroke="transparent" stroke-width="0" stroke-dasharray="none" fill="black" style="font-style: normal; font-weight: normal; font-size: 12px; font-family: Arial;" id="recordNode4_v7N6e_text" visibility="visible" text-decoration="None" transform="rotate(0,320,200)translate(273.9765625,192.8)" opacity="1" role="img" aria-label="recordNode4_v7N6e"><tspan x="0" y="10.8">Record Template</tspan></text></g></g><g id="traditionalNode5_groupElement"><rect id="traditionalNode5" x="257.5" y="300" width="125" height="50" visibility="visible" transform="rotate(0,320,325)" rx="0" ry="0" opacity="1" role="img" aria-label="traditionalNode5" stroke="transparent" stroke-width="0" stroke-dasharray="none" fill="transparent"/><g id="traditionalNode5_content_groupElement" transform="translate(0,0)"><rect id="traditionalNode5_content" x="257.5" y="300" width="125" height="50" visibility="visible" transform="rotate(0,320,325)" rx="0" ry="0" opacity="1" role="img" aria-label="Traditional Template" stroke="#868686" stroke-width="1" stroke-dasharray="none" fill="#d5f5d5"/></g><g id="traditionalNode5_ph8cv_groupElement" transform="translate(0,0)"><rect id="traditionalNode5_ph8cv" x="265.3046875" y="317.8" width="109.390625" height="14.399999999999999" visibility="visible" transform="rotate(0,320,325)" rx="0" ry="0" opacity="1" pointer-events="none" stroke="transparent" stroke-width="0" stroke-dasharray="none" fill="transparent"/><text stroke="transparent" stroke-width="0" stroke-dasharray="none" fill="black" style="font-style: normal; font-weight: normal; font-size: 12px; font-family: Arial;" id="traditionalNode5_ph8cv_text" visibility="visible" text-decoration="None" transform="rotate(0,320,325)translate(265.3046875,317.8)" opacity="1" role="img" aria-label="traditionalNode5_ph8cv"><tspan x="0" y="10.8">Traditional Template</tspan></text></g></g><g id="nontraditionalNode6_groupElement"><rect id="nontraditionalNode6" x="52.5" y="400" width="135" height="50" visibility="visible" transform="rotate(0,120,425)" rx="0" ry="0" opacity="1" role="img" aria-label="nontraditionalNode6" stroke="transparent" stroke-width="0" stroke-dasharray="none" fill="transparent"/><g id="nontraditionalNode6_content_groupElement" transform="translate(0,0)"><rect id="nontraditionalNode6_content" x="52.5" y="400" width="135" height="50" visibility="visible" transform="rotate(0,120,425)" rx="0" ry="0" opacity="1" role="img" aria-label="Nontraditional" stroke="#a8a8a8" stroke-width="1" stroke-dasharray="none" fill="#faebee"/></g><g id="nontraditionalNode6_leWR5_groupElement" transform="translate(0,0)"><rect id="nontraditionalNode6_leWR5" x="82.9765625" y="417.8" width="74.046875" height="14.399999999999999" visibility="visible" transform="rotate(0,120,425)" rx="0" ry="0" opacity="1" pointer-events="none" stroke="transparent" stroke-width="0" stroke-dasharray="none" fill="transparent"/><text stroke="transparent" stroke-width="0" stroke-dasharray="none" fill="black" style="font-style: normal; font-weight: normal; font-size: 12px; font-family: Arial;" id="nontraditionalNode6_leWR5_text" visibility="visible" text-decoration="None" transform="rotate(0,120,425)translate(82.9765625,417.8)" opacity="1" role="img" aria-label="nontraditionalNode6_leWR5"><tspan x="0" y="10.8">Nontraditional</tspan></text></g></g><g id="Radial1_groupElement"><rect id="Radial1" x="787.5" y="200" width="125" height="50" visibility="visible" transform="rotate(0,850,225)" rx="0" ry="0" opacity="1" role="img" aria-label="Radial1" stroke="transparent" stroke-width="0" stroke-dasharray="none" fill="transparent"/><g id="Radial1_content_groupElement" transform="translate(0,0)"><path d="M125,25 C125,38.81,97.02,50,62.5,50 C27.98,50,0,38.81,0,25 C0,11.19,27.98,0,62.5,0 C97.02,0,125,11.19,125,25 Z " id="Radial1_content" transform="rotate(0,850,225)translate(787.5,200)" visibility="visible" opacity="1" role="img" aria-label="Health Fitness" stroke="#a8a8a8" stroke-width="1" stroke-dasharray="none" fill="#fef0db"/></g><g id="Radial1_vw5H2_groupElement" transform="translate(0,0)"><rect id="Radial1_vw5H2" x="811.6484375" y="217.8" width="76.703125" height="14.399999999999999" visibility="visible" transform="rotate(0,850,225)" rx="0" ry="0" opacity="1" pointer-events="none" stroke="transparent" stroke-width="0" stroke-dasharray="none" fill="transparent"/><text stroke="transparent" stroke-width="0" stroke-dasharray="none" fill="black" style="font-style: normal; font-weight: normal; font-size: 12px; font-family: Arial;" id="Radial1_vw5H2_text" visibility="visible" text-decoration="None" transform="rotate(0,850,225)translate(811.6484375,217.8)" opacity="1" role="img" aria-label="Radial1_vw5H2"><tspan x="0" y="10.8">Health Fitness</tspan></text></g></g><g id="Radial2_groupElement"><rect id="Radial2" x="787.5" y="62.5" width="125" height="75" visibility="visible" transform="rotate(0,850,100)" rx="0" ry="0" opacity="1" role="img" aria-label="Radial2" stroke="transparent" stroke-width="0" stroke-dasharray="none" fill="transparent"/><g id="Radial2_content_groupElement" transform="translate(0,0)"><path d="M125,37.5 C125,58.21,97.02,75,62.5,75 C27.98,75,0,58.21,0,37.5 C0,16.79,27.98,0,62.5,0 C97.02,0,125,16.79,125,37.5 Z " id="Radial2_content" transform="rotate(0,850,100)translate(787.5,62.5)" visibility="visible" opacity="1" role="img" aria-label="Diet" stroke="#a8a8a8" stroke-width="1" stroke-dasharray="none" fill="#faebee"/></g><g id="Radial2_uNx6n_groupElement" transform="translate(0,0)"><rect id="Radial2_uNx6n" x="839.328125" y="92.8" width="21.34375" height="14.399999999999999" visibility="visible" transform="rotate(0,850,100)" rx="0" ry="0" opacity="1" pointer-events="none" stroke="transparent" stroke-width="0" stroke-dasharray="none" fill="transparent"/><text stroke="transparent" stroke-width="0" stroke-dasharray="none" fill="black" style="font-style: normal; font-weight: normal; font-size: 12px; font-family: Arial;" id="Radial2_uNx6n_text" visibility="visible" text-decoration="None" transform="rotate(0,850,100)translate(839.328125,92.8)" opacity="1" role="img" aria-label="Radial2_uNx6n"><tspan x="0" y="10.8">Diet</tspan></text></g></g><g id="Radial3_groupElement"><rect id="Radial3" x="962.5" y="137.5" width="125" height="75" visibility="visible" transform="rotate(0,1025,175)" rx="0" ry="0" opacity="1" role="img" aria-label="Radial3" stroke="transparent" stroke-width="0" stroke-dasharray="none" fill="transparent"/><g id="Radial3_content_groupElement" transform="translate(0,0)"><path d="M125,37.5 C125,58.21,97.02,75,62.5,75 C27.98,75,0,58.21,0,37.5 C0,16.79,27.98,0,62.5,0 C97.02,0,125,16.79,125,37.5 Z " id="Radial3_content" transform="rotate(0,1025,175)translate(962.5,137.5)" visibility="visible" opacity="1" role="img" aria-label="Flexibility" stroke="#a8a8a8" stroke-width="1" stroke-dasharray="none" fill="#faebee"/></g><g id="Radial3_y1tq6_groupElement" transform="translate(0,0)"><rect id="Radial3_y1tq6" x="1000.328125" y="167.8" width="49.34375" height="14.399999999999999" visibility="visible" transform="rotate(0,1025,175)" rx="0" ry="0" opacity="1" pointer-events="none" stroke="transparent" stroke-width="0" stroke-dasharray="none" fill="transparent"/><text stroke="transparent" stroke-width="0" stroke-dasharray="none" fill="black" style="font-style: normal; font-weight: normal; font-size: 12px; font-family: Arial;" id="Radial3_y1tq6_text" visibility="visible" text-decoration="None" transform="rotate(0,1025,175)translate(1000.328125,167.8)" opacity="1" role="img" aria-label="Radial3_y1tq6"><tspan x="0" y="10.8">Flexibility</tspan></text></g></g><g id="Radial4_groupElement"><rect id="Radial4" x="937.5" y="312.5" width="125" height="75" visibility="visible" transform="rotate(0,1000,350)" rx="0" ry="0" opacity="1" role="img" aria-label="Radial4" stroke="transparent" stroke-width="0" stroke-dasharray="none" fill="transparent"/><g id="Radial4_content_groupElement" transform="translate(0,0)"><path d="M125,37.5 C125,58.21,97.02,75,62.5,75 C27.98,75,0,58.21,0,37.5 C0,16.79,27.98,0,62.5,0 C97.02,0,125,16.79,125,37.5 Z " id="Radial4_content" transform="rotate(0,1000,350)translate(937.5,312.5)" visibility="visible" opacity="1" role="img" aria-label="Muscular Endurance" stroke="#a8a8a8" stroke-width="1" stroke-dasharray="none" fill="#faebee"/></g><g id="Radial4_sbxQp_groupElement" transform="translate(0,0)"><rect id="Radial4_sbxQp" x="944.96875" y="342.8" width="110.0625" height="14.399999999999999" visibility="visible" transform="rotate(0,1000,350)" rx="0" ry="0" opacity="1" pointer-events="none" stroke="transparent" stroke-width="0" stroke-dasharray="none" fill="transparent"/><text stroke="transparent" stroke-width="0" stroke-dasharray="none" fill="black" style="font-style: normal; font-weight: normal; font-size: 12px; font-family: Arial;" id="Radial4_sbxQp_text" visibility="visible" text-decoration="None" transform="rotate(0,1000,350)translate(944.96875,342.8)" opacity="1" role="img" aria-label="Radial4_sbxQp"><tspan x="0" y="10.8">Muscular Endurance</tspan></text></g></g><g id="Radial5_groupElement"><rect id="Radial5" x="612.5" y="137.5" width="125" height="75" visibility="visible" transform="rotate(0,675,175)" rx="0" ry="0" opacity="1" role="img" aria-label="Radial5" stroke="transparent" stroke-width="0" stroke-dasharray="none" fill="transparent"/><g id="Radial5_content_groupElement" transform="translate(0,0)"><path d="M125,37.5 C125,58.21,97.02,75,62.5,75 C27.98,75,0,58.21,0,37.5 C0,16.79,27.98,0,62.5,0 C97.02,0,125,16.79,125,37.5 Z " id="Radial5_content" transform="rotate(0,675,175)translate(612.5,137.5)" visibility="visible" opacity="1" role="img" aria-label="Cardiovascular Strength" stroke="#a8a8a8" stroke-width="1" stroke-dasharray="none" fill="#faebee"/></g><g id="Radial5_mpKWI_groupElement" transform="translate(0,0)"><rect id="Radial5_mpKWI" x="634.9765625" y="160.6" width="80.046875" height="28.799999999999997" visibility="visible" transform="rotate(0,675,175)" rx="0" ry="0" opacity="1" pointer-events="none" stroke="transparent" stroke-width="0" stroke-dasharray="none" fill="transparent"/><text stroke="transparent" stroke-width="0" stroke-dasharray="none" fill="black" style="font-style: normal; font-weight: normal; font-size: 12px; font-family: Arial;" id="Radial5_mpKWI_text" visibility="visible" text-decoration="None" transform="rotate(0,675,175)translate(634.9765625,160.6)" opacity="1" role="img" aria-label="Radial5_mpKWI"><tspan x="0" y="10.8">Cardiovascular</tspan><tspan x="17.3359375" y="25.2">Strength</tspan></text></g></g><g id="Radial6_groupElement"><rect id="Radial6" x="707.5" y="312.5" width="125" height="75" visibility="visible" transform="rotate(0,770,350)" rx="0" ry="0" opacity="1" role="img" aria-label="Radial6" stroke="transparent" stroke-width="0" stroke-dasharray="none" fill="transparent"/><g id="Radial6_content_groupElement" transform="translate(0,0)"><path d="M125,37.5 C125,58.21,97.02,75,62.5,75 C27.98,75,0,58.21,0,37.5 C0,16.79,27.98,0,62.5,0 C97.02,0,125,16.79,125,37.5 Z " id="Radial6_content" transform="rotate(0,770,350)translate(707.5,312.5)" visibility="visible" opacity="1" role="img" aria-label="Muscular Strength" stroke="#a8a8a8" stroke-width="1" stroke-dasharray="none" fill="#faebee"/></g><g id="Radial6_A0QLP_groupElement" transform="translate(0,0)"><rect id="Radial6_A0QLP" x="721.3046875" y="342.8" width="97.390625" height="14.399999999999999" visibility="visible" transform="rotate(0,770,350)" rx="0" ry="0" opacity="1" pointer-events="none" stroke="transparent" stroke-width="0" stroke-dasharray="none" fill="transparent"/><text stroke="transparent" stroke-width="0" stroke-dasharray="none" fill="black" style="font-style: normal; font-weight: normal; font-size: 12px; font-family: Arial;" id="Radial6_A0QLP_text" visibility="visible" text-decoration="None" transform="rotate(0,770,350)translate(721.3046875,342.8)" opacity="1" role="img" aria-label="Radial6_A0QLP"><tspan x="0" y="10.8">Muscular Strength</tspan></text></g></g><g id="flowChartConnector1_groupElement"><rect id="flowChartConnector1" x="120" y="125" width="0" height="39.75" visibility="visible" transform="rotate(0,120,144.875)" rx="0" ry="0" opacity="1" role="img" aria-label="flowChartConnector1" stroke="transparent" stroke-width="0" stroke-dasharray="none" fill="transparent"/><g id="flowChartConnector1_path_groupElement"><path d="M0,0 L0,39.5 " id="flowChartConnector1_path" transform="rotate(0,120,144.875)translate(120,125)" visibility="visible" opacity="1" role="img" aria-label="flowChartConnector1_path" stroke="#6d6d6d" stroke-width="1" stroke-dasharray="none" fill="transparent"/></g><g id="flowChartConnector1_srcDec_groupElement"><path d="" id="flowChartConnector1_srcDec" transform="rotate(90,120,125)translate(120,120)" visibility="visible" opacity="1" role="img" aria-label="flowChartConnector1_srcDec" stroke="black" stroke-width="1" stroke-dasharray="none" fill="black"/></g><g id="flowChartConnector1_tarDec_groupElement"><path d="M10,0 L10,10 L0,5 Z " id="flowChartConnector1_tarDec" transform="rotate(270,120,164.5)translate(120,159.5)" visibility="visible" opacity="1" role="img" aria-label="flowChartConnector1_tarDec" stroke="black" stroke-width="1" stroke-dasharray="none" fill="black"/></g></g><g id="flowChartConnector2_groupElement"><rect id="flowChartConnector2" x="120" y="235.25" width="0" height="54.5" visibility="visible" transform="rotate(0,120,262.5)" rx="0" ry="0" opacity="1" role="img" aria-label="flowChartConnector2" stroke="transparent" stroke-width="0" stroke-dasharray="none" fill="transparent"/><g id="flowChartConnector2_path_groupElement"><path d="M0,0 L0,54.25 " id="flowChartConnector2_path" transform="rotate(0,120,262.5)translate(120,235.25)" visibility="visible" opacity="1" role="img" aria-label="flowChartConnector2_path" stroke="#6d6d6d" stroke-width="1" stroke-dasharray="none" fill="transparent"/></g><g id="flowChartConnector2_srcDec_groupElement"><path d="" id="flowChartConnector2_srcDec" transform="rotate(90,120,235.25)translate(120,230.25)" visibility="visible" opacity="1" role="img" aria-label="flowChartConnector2_srcDec" stroke="black" stroke-width="1" stroke-dasharray="none" fill="black"/></g><g id="flowChartConnector2_tarDec_groupElement"><path d="M10,0 L10,10 L0,5 Z " id="flowChartConnector2_tarDec" transform="rotate(270,120,289.5)translate(120,284.5)" visibility="visible" opacity="1" role="img" aria-label="flowChartConnector2_tarDec" stroke="black" stroke-width="1" stroke-dasharray="none" fill="black"/></g><g id="flowChartConnector2_UftfQ_groupElement" transform="translate(0,0)"><rect id="flowChartConnector2_UftfQ" x="112.328125" y="255.3" width="15.34375" height="14.399999999999999" visibility="visible" transform="rotate(0,120,262.5)" rx="0" ry="0" opacity="1" pointer-events="none" stroke="transparent" stroke-width="0" stroke-dasharray="none" fill="White"/><text stroke="transparent" stroke-width="0" stroke-dasharray="none" fill="black" style="font-style: normal; font-weight: normal; font-size: 12px; font-family: Arial;" id="flowChartConnector2_UftfQ_text" visibility="visible" text-decoration="None" transform="rotate(0,120,262.5)translate(112.328125,255.3)" opacity="1" role="img" aria-label="flowChartConnector2_UftfQ"><tspan x="0" y="10.8">No</tspan></text></g></g><g id="flowChartConnector3_groupElement"><rect id="flowChartConnector3" x="120" y="360.25" width="0" height="39.75" visibility="visible" transform="rotate(0,120,380.125)" rx="0" ry="0" opacity="1" role="img" aria-label="flowChartConnector3" stroke="transparent" stroke-width="0" stroke-dasharray="none" fill="transparent"/><g id="flowChartConnector3_path_groupElement"><path d="M0,0 L0,39.25 " id="flowChartConnector3_path" transform="rotate(0,120,380.125)translate(120,360.25)" visibility="visible" opacity="1" role="img" aria-label="flowChartConnector3_path" stroke="#6d6d6d" stroke-width="1" stroke-dasharray="none" fill="transparent"/></g><g id="flowChartConnector3_srcDec_groupElement"><path d="" id="flowChartConnector3_srcDec" transform="rotate(90,120,360.25)translate(120,355.25)" visibility="visible" opacity="1" role="img" aria-label="flowChartConnector3_srcDec" stroke="black" stroke-width="1" stroke-dasharray="none" fill="black"/></g><g id="flowChartConnector3_tarDec_groupElement"><path d="M10,0 L10,10 L0,5 Z " id="flowChartConnector3_tarDec" transform="rotate(270,120,399.5)translate(120,394.5)" visibility="visible" opacity="1" role="img" aria-label="flowChartConnector3_tarDec" stroke="black" stroke-width="1" stroke-dasharray="none" fill="black"/></g><g id="flowChartConnector3_Kwo47_groupElement" transform="translate(0,0)"><rect id="flowChartConnector3_Kwo47" x="112.328125" y="372.93" width="15.34375" height="14.399999999999999" visibility="visible" transform="rotate(0,120,380.13)" rx="0" ry="0" opacity="1" pointer-events="none" stroke="transparent" stroke-width="0" stroke-dasharray="none" fill="White"/><text stroke="transparent" stroke-width="0" stroke-dasharray="none" fill="black" style="font-style: normal; font-weight: normal; font-size: 12px; font-family: Arial;" id="flowChartConnector3_Kwo47_text" visibility="visible" text-decoration="None" transform="rotate(0,120,380.13)translate(112.328125,372.93)" opacity="1" role="img" aria-label="flowChartConnector3_Kwo47"><tspan x="0" y="10.8">No</tspan></text></g></g><g id="flowChartConnector4_groupElement"><rect id="flowChartConnector4" x="170" y="200" width="87.5" height="0" visibility="visible" transform="rotate(0,213.75,200)" rx="0" ry="0" opacity="1" role="img" aria-label="flowChartConnector4" stroke="transparent" stroke-width="0" stroke-dasharray="none" fill="transparent"/><g id="flowChartConnector4_path_groupElement"><path d="M0,0 L87.5,0 " id="flowChartConnector4_path" transform="rotate(0,213.75,200)translate(170,200)" visibility="visible" opacity="1" role="img" aria-label="flowChartConnector4_path" stroke="#6d6d6d" stroke-width="1" stroke-dasharray="none" fill="transparent"/></g><g id="flowChartConnector4_srcDec_groupElement"><path d="" id="flowChartConnector4_srcDec" transform="rotate(0,170,200)translate(170,195)" visibility="visible" opacity="1" role="img" aria-label="flowChartConnector4_srcDec" stroke="black" stroke-width="1" stroke-dasharray="none" fill="black"/></g><g id="flowChartConnector4_tarDec_groupElement"><path d="M10,0 L10,10 L0,5 Z " id="flowChartConnector4_tarDec" transform="rotate(180,257.5,200)translate(257.5,195)" visibility="visible" opacity="1" role="img" aria-label="flowChartConnector4_tarDec" stroke="black" stroke-width="1" stroke-dasharray="none" fill="black"/></g><g id="flowChartConnector4_DZKCE_groupElement" transform="translate(0,0)"><rect id="flowChartConnector4_DZKCE" x="203.40625" y="192.8" width="20.6875" height="14.399999999999999" visibility="visible" transform="rotate(0,213.75,200)" rx="0" ry="0" opacity="1" pointer-events="none" stroke="transparent" stroke-width="0" stroke-dasharray="none" fill="White"/><text stroke="transparent" stroke-width="0" stroke-dasharray="none" fill="black" style="font-style: normal; font-weight: normal; font-size: 12px; font-family: Arial;" id="flowChartConnector4_DZKCE_text" visibility="visible" text-decoration="None" transform="rotate(0,213.75,200)translate(203.40625,192.8)" opacity="1" role="img" aria-label="flowChartConnector4_DZKCE"><tspan x="0" y="10.8">Yes</tspan></text></g></g><g id="flowChartConnector5_groupElement"><rect id="flowChartConnector5" x="170" y="325" width="87.5" height="0" visibility="visible" transform="rotate(0,213.75,325)" rx="0" ry="0" opacity="1" role="img" aria-label="flowChartConnector5" stroke="transparent" stroke-width="0" stroke-dasharray="none" fill="transparent"/><g id="flowChartConnector5_path_groupElement"><path d="M0,0 L87.5,0 " id="flowChartConnector5_path" transform="rotate(0,213.75,325)translate(170,325)" visibility="visible" opacity="1" role="img" aria-label="flowChartConnector5_path" stroke="#6d6d6d" stroke-width="1" stroke-dasharray="none" fill="transparent"/></g><g id="flowChartConnector5_srcDec_groupElement"><path d="" id="flowChartConnector5_srcDec" transform="rotate(0,170,325)translate(170,320)" visibility="visible" opacity="1" role="img" aria-label="flowChartConnector5_srcDec" stroke="black" stroke-width="1" stroke-dasharray="none" fill="black"/></g><g id="flowChartConnector5_tarDec_groupElement"><path d="M10,0 L10,10 L0,5 Z " id="flowChartConnector5_tarDec" transform="rotate(180,257.5,325)translate(257.5,320)" visibility="visible" opacity="1" role="img" aria-label="flowChartConnector5_tarDec" stroke="black" stroke-width="1" stroke-dasharray="none" fill="black"/></g><g id="flowChartConnector5_U64mv_groupElement" transform="translate(0,0)"><rect id="flowChartConnector5_U64mv" x="203.40625" y="317.8" width="20.6875" height="14.399999999999999" visibility="visible" transform="rotate(0,213.75,325)" rx="0" ry="0" opacity="1" pointer-events="none" stroke="transparent" stroke-width="0" stroke-dasharray="none" fill="White"/><text stroke="transparent" stroke-width="0" stroke-dasharray="none" fill="black" style="font-style: normal; font-weight: normal; font-size: 12px; font-family: Arial;" id="flowChartConnector5_U64mv_text" visibility="visible" text-decoration="None" transform="rotate(0,213.75,325)translate(203.40625,317.8)" opacity="1" role="img" aria-label="flowChartConnector5_U64mv"><tspan x="0" y="10.8">Yes</tspan></text></g></g><g id="RadialConnector1_groupElement"><rect id="RadialConnector1" x="850" y="137.49" width="0" height="62.59" visibility="visible" transform="rotate(0,850,168.78500000000003)" rx="0" ry="0" opacity="1" role="img" aria-label="RadialConnector1" stroke="transparent" stroke-width="0" stroke-dasharray="none" fill="transparent"/><g id="RadialConnector1_path_groupElement"><path d="M0,62.59 L0,0.01 " id="RadialConnector1_path" transform="rotate(0,850,168.78500000000003)translate(850,137.49)" visibility="visible" opacity="1" role="img" aria-label="RadialConnector1_path" stroke="#6d6d6d" stroke-width="1" stroke-dasharray="none" fill="transparent"/></g><g id="RadialConnector1_srcDec_groupElement"><path d="" id="RadialConnector1_srcDec" transform="rotate(270,850,200.08)translate(850,195.08)" visibility="visible" opacity="1" role="img" aria-label="RadialConnector1_srcDec" stroke="black" stroke-width="1" stroke-dasharray="none" fill="black"/></g><g id="RadialConnector1_tarDec_groupElement"><path d="M10,0 L10,10 L0,5 Z " id="RadialConnector1_tarDec" transform="rotate(90,850,137.5)translate(850,132.5)" visibility="visible" opacity="1" role="img" aria-label="RadialConnector1_tarDec" stroke="black" stroke-width="1" stroke-dasharray="none" fill="black"/></g><g id="RadialConnector1_RUQTZ_groupElement" transform="translate(0,0)"><rect id="RadialConnector1_RUQTZ" x="839.65625" y="161.58" width="20.6875" height="14.399999999999999" visibility="visible" transform="rotate(0,850,168.78)" rx="0" ry="0" opacity="1" pointer-events="none" stroke="transparent" stroke-width="0" stroke-dasharray="none" fill="White"/><text stroke="transparent" stroke-width="0" stroke-dasharray="none" fill="black" style="font-style: normal; font-weight: normal; font-size: 12px; font-family: Arial;" id="RadialConnector1_RUQTZ_text" visibility="visible" text-decoration="None" transform="rotate(0,850,168.78)translate(839.65625,161.58)" opacity="1" role="img" aria-label="RadialConnector1_RUQTZ"><tspan x="0" y="10.8">Yes</tspan></text></g></g><g id="RadialConnector2_groupElement"><rect id="RadialConnector2" x="900.6599999999999" y="191.05" width="68.14999999999998" height="19.47999999999999" visibility="visible" transform="rotate(0,934.7349999999999,200.79000000000002)" rx="0" ry="0" opacity="1" role="img" aria-label="RadialConnector2" stroke="transparent" stroke-width="0" stroke-dasharray="none" fill="transparent"/><g id="RadialConnector2_path_groupElement"><path d="M0,19.48 L67.86,0.09 " id="RadialConnector2_path" transform="rotate(0,934.7349999999999,200.79000000000002)translate(900.6599999999999,191.05)" visibility="visible" opacity="1" role="img" aria-label="RadialConnector2_path" stroke="#6d6d6d" stroke-width="1" stroke-dasharray="none" fill="transparent"/></g><g id="RadialConnector2_srcDec_groupElement"><path d="" id="RadialConnector2_srcDec" transform="rotate(344.04794192827563,900.66,210.53)translate(900.66,205.53)" visibility="visible" opacity="1" role="img" aria-label="RadialConnector2_srcDec" stroke="black" stroke-width="1" stroke-dasharray="none" fill="black"/></g><g id="RadialConnector2_tarDec_groupElement"><path d="M10,0 L10,10 L0,5 Z " id="RadialConnector2_tarDec" transform="rotate(164.05348896128996,968.52,191.14)translate(968.52,186.14)" visibility="visible" opacity="1" role="img" aria-label="RadialConnector2_tarDec" stroke="black" stroke-width="1" stroke-dasharray="none" fill="black"/></g><g id="RadialConnector2_TOcI7_groupElement" transform="translate(0,0)"><rect id="RadialConnector2_TOcI7" x="924.3862499999999" y="193.50000000000003" width="20.6875" height="14.399999999999999" visibility="visible" transform="rotate(0,934.7299999999999,200.70000000000002)" rx="0" ry="0" opacity="1" pointer-events="none" stroke="transparent" stroke-width="0" stroke-dasharray="none" fill="White"/><text stroke="transparent" stroke-width="0" stroke-dasharray="none" fill="black" style="font-style: normal; font-weight: normal; font-size: 12px; font-family: Arial;" id="RadialConnector2_TOcI7_text" visibility="visible" text-decoration="None" transform="rotate(0,934.7299999999999,200.70000000000002)translate(924.3862499999999,193.50000000000003)" opacity="1" role="img" aria-label="RadialConnector2_TOcI7"><tspan x="0" y="10.8">Yes</tspan></text></g></g><g id="RadialConnector3_groupElement"><rect id="RadialConnector3" x="876.95" y="247.46000000000004" width="86.62" height="72.17999999999998" visibility="visible" transform="rotate(0,920.26,283.55)" rx="0" ry="0" opacity="1" role="img" aria-label="RadialConnector3" stroke="transparent" stroke-width="0" stroke-dasharray="none" fill="transparent"/><g id="RadialConnector3_path_groupElement"><path d="M0,0 L86.67,72.22 " id="RadialConnector3_path" transform="rotate(0,920.26,283.55)translate(876.95,247.46000000000004)" visibility="visible" opacity="1" role="img" aria-label="RadialConnector3_path" stroke="#6d6d6d" stroke-width="1" stroke-dasharray="none" fill="transparent"/></g><g id="RadialConnector3_srcDec_groupElement"><path d="" id="RadialConnector3_srcDec" transform="rotate(39.804269832255116,876.95,247.46)translate(876.95,242.46)" visibility="visible" opacity="1" role="img" aria-label="RadialConnector3_srcDec" stroke="black" stroke-width="1" stroke-dasharray="none" fill="black"/></g><g id="RadialConnector3_tarDec_groupElement"><path d="M10,0 L10,10 L0,5 Z " id="RadialConnector3_tarDec" transform="rotate(219.80362030986922,963.62,319.68)translate(963.62,314.68)" visibility="visible" opacity="1" role="img" aria-label="RadialConnector3_tarDec" stroke="black" stroke-width="1" stroke-dasharray="none" fill="black"/></g><g id="RadialConnector3_GRCc0_groupElement" transform="translate(0,0)"><rect id="RadialConnector3_GRCc0" x="909.91625" y="276.3500000000001" width="20.6875" height="14.399999999999999" visibility="visible" transform="rotate(0,920.26,283.55000000000007)" rx="0" ry="0" opacity="1" pointer-events="none" stroke="transparent" stroke-width="0" stroke-dasharray="none" fill="White"/><text stroke="transparent" stroke-width="0" stroke-dasharray="none" fill="black" style="font-style: normal; font-weight: normal; font-size: 12px; font-family: Arial;" id="RadialConnector3_GRCc0_text" visibility="visible" text-decoration="None" transform="rotate(0,920.26,283.55000000000007)translate(909.91625,276.3500000000001)" opacity="1" role="img" aria-label="RadialConnector3_GRCc0"><tspan x="0" y="10.8">Yes</tspan></text></g></g><g id="RadialConnector4_groupElement"><rect id="RadialConnector4" x="731.1499999999999" y="191.04000000000002" width="68.30000000000007" height="19.52000000000001" visibility="visible" transform="rotate(0,765.3,200.8)" rx="0" ry="0" opacity="1" role="img" aria-label="RadialConnector4" stroke="transparent" stroke-width="0" stroke-dasharray="none" fill="transparent"/><g id="RadialConnector4_path_groupElement"><path d="M68.3,19.52 L0.33,0.1 " id="RadialConnector4_path" transform="rotate(0,765.3,200.8)translate(731.1499999999999,191.04000000000002)" visibility="visible" opacity="1" role="img" aria-label="RadialConnector4_path" stroke="#6d6d6d" stroke-width="1" stroke-dasharray="none" fill="transparent"/></g><g id="RadialConnector4_srcDec_groupElement"><path d="" id="RadialConnector4_srcDec" transform="rotate(195.94982764315114,799.45,210.56)translate(799.45,205.56)" visibility="visible" opacity="1" role="img" aria-label="RadialConnector4_srcDec" stroke="black" stroke-width="1" stroke-dasharray="none" fill="black"/></g><g id="RadialConnector4_tarDec_groupElement"><path d="M10,0 L10,10 L0,5 Z " id="RadialConnector4_tarDec" transform="rotate(15.94539590092286,731.48,191.14)translate(731.48,186.14)" visibility="visible" opacity="1" role="img" aria-label="RadialConnector4_tarDec" stroke="black" stroke-width="1" stroke-dasharray="none" fill="black"/></g><g id="RadialConnector4_uKuLc_groupElement" transform="translate(0,0)"><rect id="RadialConnector4_uKuLc" x="754.6262499999998" y="193.50000000000006" width="20.6875" height="14.399999999999999" visibility="visible" transform="rotate(0,764.9699999999998,200.70000000000005)" rx="0" ry="0" opacity="1" pointer-events="none" stroke="transparent" stroke-width="0" stroke-dasharray="none" fill="White"/><text stroke="transparent" stroke-width="0" stroke-dasharray="none" fill="black" style="font-style: normal; font-weight: normal; font-size: 12px; font-family: Arial;" id="RadialConnector4_uKuLc_text" visibility="visible" text-decoration="None" transform="rotate(0,764.9699999999998,200.70000000000005)translate(754.6262499999998,193.50000000000006)" opacity="1" role="img" aria-label="RadialConnector4_uKuLc"><tspan x="0" y="10.8">Yes</tspan></text></g></g><g id="RadialConnector5_groupElement"><rect id="RadialConnector5" x="792.3600000000001" y="249.16000000000003" width="42.17999999999995" height="65.9" visibility="visible" transform="rotate(0,813.45,282.11)" rx="0" ry="0" opacity="1" role="img" aria-label="RadialConnector5" stroke="transparent" stroke-width="0" stroke-dasharray="none" fill="transparent"/><g id="RadialConnector5_path_groupElement"><path d="M42.18,0 L-0.09,65.42 " id="RadialConnector5_path" transform="rotate(0,813.45,282.11)translate(792.3600000000001,249.16000000000003)" visibility="visible" opacity="1" role="img" aria-label="RadialConnector5_path" stroke="#6d6d6d" stroke-width="1" stroke-dasharray="none" fill="transparent"/></g><g id="RadialConnector5_srcDec_groupElement"><path d="" id="RadialConnector5_srcDec" transform="rotate(122.62171018594049,834.54,249.16)translate(834.54,244.16)" visibility="visible" opacity="1" role="img" aria-label="RadialConnector5_srcDec" stroke="black" stroke-width="1" stroke-dasharray="none" fill="black"/></g><g id="RadialConnector5_tarDec_groupElement"><path d="M10,0 L10,10 L0,5 Z " id="RadialConnector5_tarDec" transform="rotate(302.86782343765844,792.27,314.58)translate(792.27,309.58)" visibility="visible" opacity="1" role="img" aria-label="RadialConnector5_tarDec" stroke="black" stroke-width="1" stroke-dasharray="none" fill="black"/></g><g id="RadialConnector5_cqT0o_groupElement" transform="translate(0,0)"><rect id="RadialConnector5_cqT0o" x="803.1962500000002" y="274.91" width="20.6875" height="14.399999999999999" visibility="visible" transform="rotate(0,813.5400000000002,282.11)" rx="0" ry="0" opacity="1" pointer-events="none" stroke="transparent" stroke-width="0" stroke-dasharray="none" fill="White"/><text stroke="transparent" stroke-width="0" stroke-dasharray="none" fill="black" style="font-style: normal; font-weight: normal; font-size: 12px; font-family: Arial;" id="RadialConnector5_cqT0o_text" visibility="visible" text-decoration="None" transform="rotate(0,813.5400000000002,282.11)translate(803.1962500000002,274.91)" opacity="1" role="img" aria-label="RadialConnector5_cqT0o"><tspan x="0" y="10.8">Yes</tspan></text></g></g></g></svg>